<svg version="1" xmlns="http://www.w3.org/2000/svg" width="682.667" height="682.667" viewBox="0 0 512.000000 512.000000"><path d="M229 1.1c-12.8 1.3-33.8 5.6-46.9 9.5C141.5 22.9 105.1 44.8 75 75 14.4 135.5-11.7 220.9 4.6 305.4 14.2 355 38.6 400.7 75 437c60.5 60.6 145.9 86.7 230.4 70.4 49.6-9.6 95.3-34 131.6-70.4 60.6-60.5 86.7-145.9 70.4-230.4-7.8-40-25.9-78.9-52-111.6-8.7-10.9-27.5-29.7-38.4-38.4-39.1-31.2-86.7-50.7-135.4-55.5C269-.2 241.5-.1 229 1.1zm62 126.5c11.9 2.2 23.8 6.8 33.5 13 11.9 7.4 18.8 13.6 25.8 22.9 11.6 15.6 16.7 29.6 17 46.2.1 6.1.6 9.3 1.3 9.3 3.3 0 13.8 6.7 18.6 11.9 14.9 16.1 20.7 40.7 14.3 60.8-4.6 14.6-15.5 26.8-29.5 33.2-9.5 4.3-15.9 5.1-39.2 5.1H312l-.2-51.3-.3-51.3-31.5 13.8c-17.3 7.6-38.4 16.9-46.7 20.5l-15.3 6.7V330h-27.2c-30.6 0-35.5-.7-47.3-6.6-18.1-8.9-31.1-26.1-35.1-46.3-4.7-24.2 5.7-50.1 26-64.5 11.4-8.2 23.9-12.1 38.2-12l9.2.1 2-8.5c7.9-31.9 39.5-59.1 75.9-65.2 8.1-1.3 22.6-1.1 31.3.6zm2 161.7v32.3l-6.6-.4c-8.9-.6-16.3 1.2-22.5 5.4-5 3.3-5.3 3.4-15.5 3.4H238l.2-24.6.3-24.6 27-11.9c14.9-6.5 27.1-11.8 27.3-11.9.1 0 .2 14.5.2 32.3z"/></svg>